<svg xmlns="http://www.w3.org/2000/svg" viewBox="0 0 720 640" role="img" aria-labelledby="title desc">
  <title id="title">Kidz.com activity photo placeholders</title>
  <desc id="desc">A colourful collage representing creative activities, active play and belonging.</desc>
  <rect width="720" height="640" rx="48" fill="#d3f2ed"/>
  <circle cx="618" cy="88" r="78" fill="#f7c94b"/>
  <path d="M28 495c88-72 158-70 238-18s172 68 426-16v179H28z" fill="#6f4bd8"/>
  <g transform="translate(72 58) rotate(-7 180 216)">
    <rect width="362" height="438" rx="24" fill="#18323a" opacity=".18" transform="translate(12 14)"/>
    <rect width="362" height="438" rx="24" fill="#fff9ee" stroke="#18323a" stroke-width="5"/>
    <rect x="26" y="28" width="310" height="314" rx="16" fill="#ee735f"/>
    <path d="M65 285c63-69 106-86 158-55 36 21 58 16 90-8v120H65z" fill="#f7c94b"/>
    <circle cx="183" cy="151" r="72" fill="#fff9ee"/>
    <path d="M151 97h64l-17 36 33 12-55 31-22-25-43 13 21-39z" fill="#6f4bd8"/>
    <text x="181" y="387" text-anchor="middle" font-family="Arial, sans-serif" font-size="18" font-weight="800" fill="#18323a">APPROVED KIDZ.COM PHOTO</text>
    <text x="181" y="412" text-anchor="middle" font-family="Arial, sans-serif" font-size="13" fill="#49616a">creative • active • together</text>
  </g>
  <g transform="translate(395 196) rotate(8 125 165)">
    <rect width="250" height="330" rx="20" fill="#18323a" opacity=".18" transform="translate(10 12)"/>
    <rect width="250" height="330" rx="20" fill="#fff" stroke="#18323a" stroke-width="5"/>
    <rect x="20" y="22" width="210" height="224" rx="13" fill="#6f4bd8"/>
    <circle cx="125" cy="132" r="62" fill="#f7c94b"/>
    <circle cx="125" cy="132" r="42" fill="#fff9ee"/>
    <path d="M125 83v98M76 132h98" stroke="#ee735f" stroke-width="14" stroke-linecap="round"/>
    <text x="125" y="286" text-anchor="middle" font-family="Arial, sans-serif" font-size="17" font-weight="800" fill="#18323a">REAL MOMENTS</text>
    <text x="125" y="309" text-anchor="middle" font-family="Arial, sans-serif" font-size="12" fill="#49616a">not stock photos</text>
  </g>
  <path d="M631 24l12 24 27 4-20 19 5 27-24-13-24 13 5-27-20-19 27-4z" fill="#ee735f" stroke="#18323a" stroke-width="4"/>
  <path d="M33 443c35-38 66-33 88-3" fill="none" stroke="#18323a" stroke-width="8" stroke-linecap="round"/>
  <circle cx="43" cy="430" r="8" fill="#f7c94b" stroke="#18323a" stroke-width="4"/>
  <circle cx="111" cy="431" r="8" fill="#f7c94b" stroke="#18323a" stroke-width="4"/>
</svg>
